#!OML:ASF I:\golf\golf\golf 2\Subject 1\2002-09-07\Subject1.ASF
:FULLY-SPECIFIED
:DEGREES
248
root -5.79026 17.8995 4.40929 2.83121 38.8185 -10.9067
lowerback 4.77243 -8.75714 -15.2706
upperback -0.0941446 -12.3875 -3.83279
thorax -0.434371 -6.03012 4.61668
lowerneck -6.04615 21.0498 1.07327
upperneck 9.41613 30.059 -13.6539
head 6.12604 13.8499 -1.76194
rclavicle 7.23576e-014 1.90833e-014
rhumerus 23.5003 -23.7804 -54.4974
rradius 110.749
rwrist 10.3755
rhand -62.9895 59.6678
rfingers 7.12502
rthumb -34.9929 33.1101
lclavicle 7.23576e-014 1.90833e-014
lhumerus 112.395 -42.6911 42.3691
lradius 39.2494
lwrist -10.6388
lhand -37.6461 -4.06176
lfingers 7.12502
lthumb -190.698 -154.354
rfemur -28.743 19.5304 25.1262
rtibia 30.0838
rfoot -3.42976 23.5916
rtoes 31.3704
lfemur -5.9046 22.489 4.95884
ltibia 37.3201
lfoot 2.35796 14.0546
ltoes -34.9531
249
root -5.79075 17.905 4.42406 2.90043 38.7854 -10.7419
lowerback 4.80897 -8.76508 -15.4121
upperback -0.058081 -12.4059 -3.84015
thorax -0.385452 -6.04245 4.67888
lowerneck -6.10955 21.074 0.888064
upperneck 9.29476 30.0801 -13.6381
head 6.07031 13.8622 -1.74092
rclavicle -1.82882e-014 0
rhumerus 23.6864 -23.9938 -54.0358
rradius 110.7
rwrist 10.2547
rhand -63.2825 60.1931
rfingers 7.12502
rthumb -35.2709 33.7007
lclavicle -1.82882e-014 0
lhumerus 112.589 -42.4409 42.4233
lradius 39.3544
lwrist -10.5837
lhand -37.7077 -3.91228
lfingers 7.12502
lthumb -190.757 -154.208
rfemur -28.665 19.4944 25.059
rtibia 30.0975
rfoot -3.3164 23.6437
rtoes 31.6812
lfemur -5.86646 22.3417 4.88315
ltibia 37.2296
lfoot 2.04752 14.505
ltoes -32.8523
250
root -5.79219 17.9053 4.43654 3.0017 38.7566 -10.6267
lowerback 4.83789 -8.80355 -15.532
upperback -0.0696938 -12.4683 -3.81951
thorax -0.373191 -6.07246 4.7608
lowerneck -6.24358 21.1449 0.806664
upperneck 9.34656 30.1957 -13.6213
head 6.10269 13.9041 -1.69834
rclavicle 1.0138e-013 9.54166e-015
rhumerus 23.8742 -24.113 -53.5876
rradius 110.631
rwrist 10.3855
rhand -63.5483 60.5003
rfingers 7.12502
rthumb -35.5229 34.068
lclavicle 1.0138e-013 9.54166e-015
lhumerus 112.617 -42.2397 42.5973
lradius 39.3884
lwrist -10.6439
lhand -37.9066 -3.76424
lfingers 7.12502
lthumb -190.949 -154.07
rfemur -28.6725 19.4723 25.0038
rtibia 30.1053
rfoot -3.19627 23.6815
rtoes 31.9402
lfemur -5.80197 22.2956 4.81387
ltibia 37.1237
lfoot 2.05198 14.6576
ltoes -32.1969
251
root -5.7944 17.903 4.4475 2.98409 38.7092 -10.7078
lowerback 4.89983 -8.81443 -15.487
upperback -0.106722 -12.4981 -3.79873
thorax -0.446361 -6.08121 4.77437
lowerneck -6.32712 21.1946 0.944161
upperneck 9.42375 30.2928 -13.7368
head 6.18665 13.9341 -1.71073
rclavicle 6.27663e-014 3.49861e-014
rhumerus 23.8716 -24.2331 -53.0459
rradius 110.539
rwrist 10.7022
rhand -64.0032 60.2509
rfingers 7.12502
rthumb -35.954 33.9231
lclavicle 6.27663e-014 3.49861e-014
lhumerus 112.648 -42.1579 42.75
lradius 39.3731
lwrist -10.9088
lhand -38.0819 -3.51847
lfingers 7.12502
lthumb -191.118 -153.833
rfemur -28.6911 19.5198 25.108
rtibia 30.1264
rfoot -3.21639 23.7111
rtoes 31.8548
lfemur -5.75063 22.2274 4.9054
ltibia 37.0377
lfoot 2.26754 14.7145
ltoes -32.5695
252
root -5.7961 17.9018 4.45684 2.95549 38.6688 -10.7957
lowerback 4.93952 -8.82603 -15.4239
upperback -0.121846 -12.5209 -3.76277
thorax -0.485107 -6.0905 4.78825
lowerneck -6.45533 21.2331 0.927238
upperneck 9.46384 30.3695 -13.7916
head 6.23264 13.955 -1.69616
rclavicle 1.17581e-013 7.63333e-014
rhumerus 23.9249 -24.368 -52.6273
rradius 110.471
rwrist 11.0707
rhand -64.2396 59.7886
rfingers 7.12502
rthumb -36.1779 33.516
lclavicle 1.17581e-013 7.63333e-014
lhumerus 112.663 -42.0339 42.8933
lradius 39.3985
lwrist -11.0892
lhand -37.9466 -3.38336
lfingers 7.12502
lthumb -190.988 -153.691
rfemur -28.7025 19.5542 25.2179
rtibia 30.1508
rfoot -3.2565 23.7348
rtoes 31.63
lfemur -5.70858 22.2037 5.01154
ltibia 36.973
lfoot 2.54827 14.6394
ltoes -33.428
253
root -5.7959 17.9021 4.46582 3.01421 38.6329 -10.7596
lowerback 4.88462 -8.82718 -15.4528
upperback -0.106976 -12.5108 -3.76844
thorax -0.435863 -6.08915 4.78502
lowerneck -6.45779 21.2227 0.909344
upperneck 9.4346 30.3516 -13.8014
head 6.22141 13.9476 -1.70078
rclavicle 5.43676e-014 4.13472e-014
rhumerus 23.9642 -24.5181 -52.3259
rradius 110.433
rwrist 11.3044
rhand -64.5638 58.0667
rfingers 7.12502
rthumb -36.4849 31.8708
lclavicle 5.43676e-014 4.13472e-014
lhumerus 112.683 -41.9293 42.9552
lradius 39.4881
lwrist -10.9944
lhand -37.8509 -3.54456
lfingers 7.12502
lthumb -190.895 -153.847
rfemur -28.7151 19.5905 25.203
rtibia 30.1405
rfoot -3.20579 23.7492
rtoes 31.5349
lfemur -5.66399 22.2194 5.00758
ltibia 36.8985
lfoot 3.09392 14.3137
ltoes -35.413
254
root -5.79561 17.9046 4.4749 3.10074 38.5943 -10.675
lowerback 4.8069 -8.8191 -15.5333
upperback -0.0779577 -12.4838 -3.80374
thorax -0.358066 -6.08098 4.77176
lowerneck -6.30358 21.2048 1.01875
upperneck 9.31757 30.3052 -13.8998
head 6.18752 13.9399 -1.76286
rclavicle 8.01102e-014 -7.31528e-014
rhumerus 23.9426 -24.6371 -52.0066
rradius 110.42
rwrist 11.2265
rhand -64.7347 58.0304
rfingers 7.12502
rthumb -36.6467 31.8754
lclavicle 8.01102e-014 -7.31528e-014
lhumerus 112.769 -41.8201 42.941
lradius 39.5601
lwrist -10.9115
lhand -38.1395 -3.50907
lfingers 7.12502
lthumb -191.174 -153.827
rfemur -28.7058 19.6655 25.1306
rtibia 30.0808
rfoot -3.12569 23.7501
rtoes 31.5527
lfemur -5.62297 22.2071 4.95573
ltibia 36.8181
lfoot 3.46544 14.0938
ltoes -36.6147
255
root -5.79669 17.9099 4.48102 3.15011 38.5764 -10.6436
lowerback 4.79157 -8.81877 -15.5809
upperback -0.0721598 -12.4808 -3.85289
thorax -0.345288 -6.0791 4.7417
lowerneck -6.11898 21.2302 1.27808
upperneck 9.26034 30.3211 -14.0093
head 6.19564 13.9616 -1.83129
rclavicle -6.86801e-014 0
rhumerus 23.8799 -24.7257 -51.7298
rradius 110.434
rwrist 10.9146
rhand -64.709 58.8404
rfingers 7.12502
rthumb -36.6223 32.6792
lclavicle -6.86801e-014 0
lhumerus 112.83 -41.7285 42.8937
lradius 39.6376
lwrist -10.9759
lhand -38.4118 -3.32549
lfingers 7.12502
lthumb -191.436 -153.657
rfemur -28.6821 19.7354 25.0928
rtibia 29.9902
rfoot -3.05812 23.7148
rtoes 31.5532
lfemur -5.61731 22.1633 4.94561
ltibia 36.7425
lfoot 3.37656 14.2594
ltoes -35.7484
